<?xml version="1.0" encoding="UTF-8"?>
<svg version="1.1" xmlns="http://www.w3.org/2000/svg" width="194" height="157">
<path d="M0 0 C0 0.66 0 1.32 0 2 C0.94875 1.95875 1.8975 1.9175 2.875 1.875 C6.77189085 2.03087563 7.19804538 3.14076291 9.75 5.875 C12.01511012 8.14653693 12.01511012 8.14653693 15.125 10 C17.89234393 11.92510882 18.8919668 12.89750703 20 16 C20.66 16 21.32 16 22 16 C22.103125 16.680625 22.20625 17.36125 22.3125 18.0625 C22.94655852 21.15579071 22.94655852 21.15579071 24.5 24.5 C28.67934242 34.25179899 27.80018843 45.92277867 25 56 C23.66666667 58 22.33333333 60 21 62 C19.8509288 63.9254644 19.8509288 63.9254644 20 66 C20.33 66.99 20.66 67.98 21 69 C22.07241943 68.85763916 22.07241943 68.85763916 23.16650391 68.71240234 C28.60607026 69.26451411 32.13125704 74.32208352 35.83154297 78.06982422 C37.37049166 79.62045743 38.93868808 81.13638895 40.51171875 82.65234375 C41.49673218 83.63347232 42.47987214 84.61648612 43.4609375 85.6015625 C44.80357666 86.93695068 44.80357666 86.93695068 46.17333984 88.29931641 C48 91 48 91 47.86083984 94.21875 C47.00012229 96.99960489 46.31056697 98.36754043 44.25 100.375 C43.76015625 100.87773438 43.2703125 101.38046875 42.765625 101.8984375 C40.27823819 103.45030272 38.90678784 103.38079051 36 103 C33.4128418 101.07568359 33.4128418 101.07568359 30.69921875 98.3984375 C30.2179805 97.92435455 29.73674225 97.45027161 29.24092102 96.96182251 C28.22884452 95.95751546 27.22310491 94.94678727 26.22338867 93.93017578 C24.69389146 92.38147173 23.13737735 90.86431212 21.57617188 89.34765625 C20.59458002 88.36635481 19.614702 87.3833354 18.63671875 86.3984375 C17.74686279 85.50817871 16.85700684 84.61791992 15.94018555 83.70068359 C13.6526506 80.51649942 13.58259251 78.83508519 14 75 C11.30864154 73.65432077 9.86123106 74.22775379 6.9375 74.8125 C5.58978516 75.06966797 5.58978516 75.06966797 4.21484375 75.33203125 C3.11849609 75.66267578 3.11849609 75.66267578 2 76 C1.67 76.66 1.34 77.32 1 78 C-8.86779357 81.67623682 -20.22660486 80.43953396 -29.75 76.5 C-33.78763326 74.64312053 -36.86920031 73.13079969 -40 70 C-40.66 69.67 -41.32 69.34 -42 69 C-42.66 68.67 -43.32 68.34 -44 68 C-44.12375 67.38125 -44.2475 66.7625 -44.375 66.125 C-44.81605986 63.82163878 -44.81605986 63.82163878 -47 62.5625 C-49.57044744 60.55433794 -49.5056629 59.13080161 -50 56 C-50.66 55.67 -51.32 55.34 -52 55 C-54.45700633 42.96066898 -54.80562052 28.07299044 -47.875 17.5 C-47.25625 16.675 -46.6375 15.85 -46 15 C-45.67 14.34 -45.34 13.68 -45 13 C-43.33333333 11.33333333 -41.66666667 9.66666667 -40 8 C-39.67 7.34 -39.34 6.68 -39 6 C-38.01 5.67 -37.02 5.34 -36 5 C-35.401875 4.67 -34.80375 4.34 -34.1875 4 C-32 3 -32 3 -28.8125 2.5 C-27.884375 2.335 -26.95625 2.17 -26 2 C-25.67 1.34 -25.34 0.68 -25 0 C-16.65690695 -1.73814439 -8.39072852 -1.06548934 0 0 Z M-28 10 C-28.98419922 10.42152344 -28.98419922 10.42152344 -29.98828125 10.8515625 C-32.45810542 12.26152038 -34.19922233 13.97068845 -36.1875 16 C-36.88230469 16.70125 -37.57710937 17.4025 -38.29296875 18.125 C-40.06189325 19.89758332 -40.06189325 19.89758332 -41 22 C-41.32097656 22.52851563 -41.64195313 23.05703125 -41.97265625 23.6015625 C-44.73465672 28.72957771 -45.37963316 33.41457924 -45.375 39.1875 C-45.37636963 39.86441895 -45.37773926 40.54133789 -45.37915039 41.23876953 C-45.28695667 45.4880146 -44.67389616 49.08830648 -43 53 C-42.34 53.33 -41.68 53.66 -41 54 C-40.375 56.0625 -40.375 56.0625 -40 58 C-39.34 58 -38.68 58 -38 58 C-37.9175 58.598125 -37.835 59.19625 -37.75 59.8125 C-36.77938866 62.64344975 -35.47953512 63.39559492 -33 65 C-32.01 65.66 -31.02 66.32 -30 67 C-29.01 67.33 -28.02 67.66 -27 68 C-26.34 68.66 -25.68 69.32 -25 70 C-17.49095854 72.87902711 -8.77021379 72.5723051 -1.203125 70.078125 C1.15192643 69.20182667 1.15192643 69.20182667 2 67 C2.66 66.855625 3.32 66.71125 4 66.5625 C4.66 66.376875 5.32 66.19125 6 66 C6.33 65.01 6.66 64.02 7 63 C8.62935241 61.62131719 10.29749607 60.28725907 12 59 C16.5499182 54.4500818 18.77285049 48.93958185 19.265625 42.5625 C19.25789063 40.7990625 19.25789063 40.7990625 19.25 39 C19.25515625 37.824375 19.2603125 36.64875 19.265625 35.4375 C18.99608631 31.94935221 18.35972362 29.21737421 17 26 C16.34 25.67 15.68 25.34 15 25 C14.79697266 24.10861328 14.79697266 24.10861328 14.58984375 23.19921875 C13.8367626 20.39137314 12.50118508 18.96077265 10.5625 16.8125 C9.63630859 15.77029297 9.63630859 15.77029297 8.69140625 14.70703125 C7.09592179 12.91438334 7.09592179 12.91438334 5 12 C4.40445313 11.690625 3.80890625 11.38125 3.1953125 11.0625 C2.17050781 10.5365625 2.17050781 10.5365625 1.125 10 C0.44695312 9.649375 -0.23109375 9.29875 -0.9296875 8.9375 C-9.50247245 5.05548417 -19.59705962 6.30677217 -28 10 Z " fill="#092947" transform="translate(100,3)"/>
<path d="M0 0 C2.89746546 2.07861652 4.64557604 3.58230416 5.52734375 7.109375 C5.78019771 9.06293161 5.89996724 11.03268915 6 13 C6.66 12.01 7.32 11.02 8 10 C9.82224023 7.26663965 11.69363725 5.30636275 14 3 C14.66 2.01 15.32 1.02 16 0 C18.1640625 -0.51171875 18.1640625 -0.51171875 20.625 -0.6875 C21.44226563 -0.75324219 22.25953125 -0.81898437 23.1015625 -0.88671875 C23.72804687 -0.92410156 24.35453125 -0.96148438 25 -1 C24.625 1.9375 24.625 1.9375 24 5 C23.34 5.33 22.68 5.66 22 6 C21.67 6.66 21.34 7.32 21 8 C19 11 19 11 16.9375 13 C14.78004417 14.9382645 14.78004417 14.9382645 14 18 C16.04048882 19.23955883 16.04048882 19.23955883 18.75 18.75 C23.32702756 19.10207904 24.74916377 20.82476462 28 24 C29.98950412 27.97900824 29.19256314 32.82602902 28 37 C27.01 37.495 27.01 37.495 26 38 C25.46375 38.350625 24.9275 38.70125 24.375 39.0625 C20.86191418 40.4492444 17.7632039 40.12544013 14 40 C13.71125 39.38125 13.4225 38.7625 13.125 38.125 C12.06279958 35.86674235 12.06279958 35.86674235 10 34 C9.8046875 31.6171875 9.8046875 31.6171875 9.875 28.875 C9.89304687 27.96492188 9.91109375 27.05484375 9.9296875 26.1171875 C9.95289062 25.41851562 9.97609375 24.71984375 10 24 C7.58775369 26.89469557 5.59225995 29.5880144 4 33 C2.66666667 35 1.33333333 37 0 39 C-2.1640625 39.29296875 -2.1640625 39.29296875 -4.625 39.1875 C-5.44226563 39.16042969 -6.25953125 39.13335937 -7.1015625 39.10546875 C-7.72804688 39.07066406 -8.35453125 39.03585938 -9 39 C-9.33 37.68 -9.66 36.36 -10 35 C-8.515 34.505 -8.515 34.505 -7 34 C-5.35184415 31.75183436 -5.35184415 31.75183436 -3.875 29.0625 C-3.35679688 28.16660156 -2.83859375 27.27070312 -2.3046875 26.34765625 C-0.51045161 23.34334928 -0.51045161 23.34334928 0 20 C-3.63 19.67 -7.26 19.34 -11 19 C-11.33 18.01 -11.66 17.02 -12 16 C-12.66 15.34 -13.32 14.68 -14 14 C-14.77613478 7.34741615 -14.77613478 7.34741615 -12.94921875 4.17578125 C-8.71753869 -0.97962838 -6.44152665 -1.52849785 0 0 Z M-8 8 C-7.67 9.32 -7.34 10.64 -7 12 C-5.10820797 12.6814823 -5.10820797 12.6814823 -3 13 C-2.34 12.34 -1.68 11.68 -1 11 C-1.32041397 8.39719432 -1.32041397 8.39719432 -2 6 C-5.18490007 5.7226499 -5.18490007 5.7226499 -8 8 Z M12 18 C11.34 19.32 10.68 20.64 10 22 C10.99 22 11.98 22 13 22 C13.33 21.34 13.66 20.68 14 20 C13.34 19.34 12.68 18.68 12 18 Z M16 27 C15.95936168 28.66617115 15.957279 30.33388095 16 32 C18.475 32.495 18.475 32.495 21 33 C22.10636395 30.60931266 22.10636395 30.60931266 23 28 C22.67 27.34 22.34 26.68 22 26 C18.71069596 25.63314303 18.71069596 25.63314303 16 27 Z " fill="#D22724" transform="translate(80,22)"/>
<path d="M0 0 C2.31 0 4.62 0 7 0 C7 1.32 7 2.64 7 4 C7.99 4 8.98 4 10 4 C10 5.65 10 7.3 10 9 C9.01 9 8.02 9 7 9 C7 11.31 7 13.62 7 16 C7.66 16 8.32 16 9 16 C9.33 17.65 9.66 19.3 10 21 C3.51747312 21.36693548 3.51747312 21.36693548 1.28125 19.78125 C-0.3746715 17.47911524 -0.3094704 16.11781917 -0.1875 13.3125 C-0.16042969 12.50425781 -0.13335937 11.69601563 -0.10546875 10.86328125 C-0.05326172 9.94095703 -0.05326172 9.94095703 0 9 C-0.66 9 -1.32 9 -2 9 C-2 9.66 -2 10.32 -2 11 C-4.31 11 -6.62 11 -9 11 C-9 10.34 -9 9.68 -9 9 C-9.99 9 -10.98 9 -12 9 C-11.65772428 11.97065509 -11.65772428 11.97065509 -11 15 C-10.34 15.33 -9.68 15.66 -9 16 C-8.67 15.01 -8.34 14.02 -8 13 C-6.02 13 -4.04 13 -2 13 C-2.50094846 16.70701864 -3.02524128 18.66843235 -6 21 C-10.16013014 21.85041334 -13.85451454 21.6425894 -17.5625 19.5625 C-19.70545586 15.74244826 -19.77831284 12.27678974 -19 8 C-17.11553772 5.20820403 -15.77422669 4.31387568 -12.6875 3.0625 C-8.85200271 2.97330239 -6.43229372 4.31750308 -3 6 C-2.67 5.34 -2.34 4.68 -2 4 C-1.34 4 -0.68 4 0 4 C0 2.68 0 1.36 0 0 Z " fill="#17355C" transform="translate(153,133)"/>
<path d="M0 0 C13.16037736 -0.43867925 13.16037736 -0.43867925 18 3 C20.96266844 7.44400266 20.76945894 11.78901077 20 17 C17.7984026 19.89683868 16.21405538 21.39297231 13 23 C8.66396021 23.1393329 4.33919329 23.04254111 0 23 C0 15.41 0 7.82 0 0 Z M7 6 C7 9.63 7 13.26 7 17 C8.98 16.67 10.96 16.34 13 16 C14.11085525 11.71347338 14.11085525 11.71347338 12.8125 7.625 C10.90933583 5.55496999 10.90933583 5.55496999 7 6 Z " fill="#17355C" transform="translate(65,131)"/>
<path d="M0 0 C13.16958826 -0.43416225 13.16958826 -0.43416225 18.8125 4.625 C20.67445261 8.34890521 20.53907879 11.92048484 20 16 C18.77592002 18.87658796 17.90678875 20.39757322 15.3125 22.12109375 C12.20867122 23.3007584 9.55934961 23.19118699 6.25 23.125 C3.15625 23.063125 3.15625 23.063125 0 23 C0 15.41 0 7.82 0 0 Z M7 6 C7 9.63 7 13.26 7 17 C11.63019987 16.5547002 11.63019987 16.5547002 13 15 C13.25003964 11.54178598 13.25003964 11.54178598 13 8 C12.34 7.34 11.68 6.68 11 6 C9.68 6 8.36 6 7 6 Z " fill="#17355C" transform="translate(0,131)"/>
<path d="M0 0 C2.70691353 3.31815207 3 4.63892081 3 9 C0.69 9.33 -1.62 9.66 -4 10 C-1.69 10 0.62 10 3 10 C0.125 14.875 0.125 14.875 -1 16 C-5.26907775 16.5282226 -8.83259661 16.7588122 -12.5 14.375 C-14.37256368 11.41010751 -14.92967856 9.51607206 -15 6 C-13.77845774 2.47110014 -12.87505789 0.58337193 -9.75 -1.5 C-5.9102505 -2.19813627 -3.57237269 -1.52156614 0 0 Z M-8 4 C-4 5 -4 5 -4 5 Z " fill="#17355C" transform="translate(101,138)"/>
<path d="M0 0 C1 1 1 1 1.09765625 4.37890625 C1.09098369 5.77347077 1.07902532 7.16801743 1.0625 8.5625 C1.05798828 9.27341797 1.05347656 9.98433594 1.04882812 10.71679688 C1.03700864 12.47790013 1.01907263 14.23896036 1 16 C-1.29141286 16.05384521 -3.58318188 16.09272087 -5.875 16.125 C-7.15117188 16.14820313 -8.42734375 16.17140625 -9.7421875 16.1953125 C-13 16 -13 16 -15 14 C-15.25 11 -15.25 11 -15 8 C-14.34 7.34 -13.68 6.68 -13 6 C-13.32041397 3.39719432 -13.32041397 3.39719432 -14 1 C-8.54411549 -2.54632493 -5.87633179 -1.99197688 0 0 Z M-7 3 C-7.33 3.66 -7.66 4.32 -8 5 C-7.01 4.67 -6.02 4.34 -5 4 C-5.66 3.67 -6.32 3.34 -7 3 Z M-7 9 C-7.66 9.66 -8.32 10.32 -9 11 C-8.01 11 -7.02 11 -6 11 C-5.67 10.34 -5.34 9.68 -5 9 C-5.66 9 -6.32 9 -7 9 Z " fill="#17355C" transform="translate(54,138)"/>
<path d="M0 0 C1.59387812 3.88507791 1.09086357 7.4376669 0 11.4375 C-1.5625 13.5 -1.5625 13.5 -4 14.4375 C-8.95095859 15.06619315 -10.86686529 15.21653011 -15 12.375 C-17.51930235 8.67477467 -17.7066341 6.8343344 -17 2.4375 C-15.3236826 -0.31645002 -14.06172747 -2.01333062 -11.1875 -3.5 C-6.96586515 -3.62061814 -3.33391802 -2.60462345 0 0 Z M-9 2.4375 C-10.29633621 3.50395115 -10.29633621 3.50395115 -10.0625 6 C-10.041875 6.804375 -10.02125 7.60875 -10 8.4375 C-8.68 8.4375 -7.36 8.4375 -6 8.4375 C-6 6.7875 -6 5.1375 -6 3.4375 C-6.99 3.1075 -7.98 2.7775 -9 2.4375 Z " fill="#17355C" transform="translate(180,139.5625)"/>
<path d="M0 0 C2.29013653 3.4352048 2.17842973 4.985331 2 9 C-1.3 9 -4.6 9 -8 9 C-8 9.66 -8 10.32 -8 11 C-4.7 10.67 -1.4 10.34 2 10 C0.25 14.875 0.25 14.875 -2 16 C-6.44363935 16.36423273 -8.9714545 16.49284472 -13 14.5625 C-15.54988258 11.29546294 -15.65956393 9.18613905 -15.42578125 5.125 C-14.80328694 2.0182394 -13.60681525 0.73787683 -11 -1 C-7.16316296 -2.85226616 -3.82638422 -1.41717934 0 0 Z " fill="#17355C" transform="translate(131,138)"/>
<path d="M0 0 C2.29013653 3.4352048 2.17842973 4.985331 2 9 C-1.3 9 -4.6 9 -8 9 C-8 9.66 -8 10.32 -8 11 C-4.7 10.67 -1.4 10.34 2 10 C1 14 1 14 -2 16 C-5.9448434 16.31308281 -8.7585455 16.4774825 -12.4375 15.0625 C-14.97797567 11.70907212 -15.31240707 8.14120995 -15 4 C-13.3503885 1.06735734 -12.1642173 -0.39781864 -9.1875 -1.9375 C-5.82387064 -2.0336037 -3.13564014 -1.1613482 0 0 Z M-8 4 C-4 5 -4 5 -4 5 Z " fill="#17355C" transform="translate(36,138)"/>
<path d="M0 0 C2.31 0 4.62 0 7 0 C7 1.32 7 2.64 7 4 C7.66 4 8.32 4 9 4 C9 5.65 9 7.3 9 9 C8.34 9 7.68 9 7 9 C7 11.31 7 13.62 7 16 C7.66 16 8.32 16 9 16 C9.33 17.65 9.66 19.3 10 21 C3.9453125 21.1953125 3.9453125 21.1953125 2 21 C0 19 0 19 -0.1953125 16.6171875 C-0.17210938 15.71226562 -0.14890625 14.80734375 -0.125 13.875 C-0.10695313 12.96492187 -0.08890625 12.05484375 -0.0703125 11.1171875 C-0.04710938 10.41851562 -0.02390625 9.71984375 0 9 C-0.66 9 -1.32 9 -2 9 C-2 7.35 -2 5.7 -2 4 C-1.34 4 -0.68 4 0 4 C0 2.68 0 1.36 0 0 Z " fill="#17355C" transform="translate(106,133)"/>
<path d="M0 0 C2.31 0 4.62 0 7 0 C7 7.59 7 15.18 7 23 C4.69 23 2.38 23 0 23 C0 15.41 0 7.82 0 0 Z " fill="#17355C" transform="translate(57,131)"/>
<path d="M0 0 C0 1.98 0 3.96 0 6 C-1.32 6 -2.64 6 -4 6 C-4.33 9.63 -4.66 13.26 -5 17 C-7.31 17 -9.62 17 -12 17 C-12 11.39 -12 5.78 -12 0 C-3.375 -1.125 -3.375 -1.125 0 0 Z " fill="#17355C" transform="translate(194,137)"/>
<path d="M0 0 C0.99 0.495 0.99 0.495 2 1 C1.01 1.495 1.01 1.495 0 2 C0 1.34 0 0.68 0 0 Z " fill="#000000" transform="translate(68,22)"/>
<path d="" fill="#000000" transform="translate(0,0)"/>
<path d="" fill="#000000" transform="translate(0,0)"/>
<path d="" fill="#000000" transform="translate(0,0)"/>
<path d="" fill="#000000" transform="translate(0,0)"/>
<path d="" fill="#000000" transform="translate(0,0)"/>
<path d="" fill="#000000" transform="translate(0,0)"/>
<path d="M0 0 C2 1 2 1 2 1 Z " fill="#000000" transform="translate(112,10)"/>
<path d="" fill="#000000" transform="translate(0,0)"/>
<path d="" fill="#000000" transform="translate(0,0)"/>
<path d="" fill="#000000" transform="translate(0,0)"/>
<path d="" fill="#000000" transform="translate(0,0)"/>
<path d="" fill="#000000" transform="translate(0,0)"/>
<path d="" fill="#000000" transform="translate(0,0)"/>
<path d="" fill="#000000" transform="translate(0,0)"/>
<path d="" fill="#000000" transform="translate(0,0)"/>
<path d="" fill="#000000" transform="translate(0,0)"/>
<path d="" fill="#000000" transform="translate(0,0)"/>
<path d="" fill="#000000" transform="translate(0,0)"/>
<path d="" fill="#000000" transform="translate(0,0)"/>
<path d="" fill="#000000" transform="translate(0,0)"/>
<path d="" fill="#000000" transform="translate(0,0)"/>
<path d="" fill="#000000" transform="translate(0,0)"/>
<path d="" fill="#000000" transform="translate(0,0)"/>
<path d="" fill="#000000" transform="translate(0,0)"/>
<path d="" fill="#000000" transform="translate(0,0)"/>
<path d="" fill="#000000" transform="translate(0,0)"/>
<path d="" fill="#000000" transform="translate(0,0)"/>
<path d="" fill="#000000" transform="translate(0,0)"/>
<path d="" fill="#000000" transform="translate(0,0)"/>
<path d="" fill="#000000" transform="translate(0,0)"/>
<path d="" fill="#000000" transform="translate(0,0)"/>
<path d="" fill="#000000" transform="translate(0,0)"/>
<path d="" fill="#000000" transform="translate(0,0)"/>
<path d="" fill="#000000" transform="translate(0,0)"/>
<path d="" fill="#000000" transform="translate(0,0)"/>
<path d="" fill="#000000" transform="translate(0,0)"/>
<path d="" fill="#000000" transform="translate(0,0)"/>
<path d="" fill="#000000" transform="translate(0,0)"/>
<path d="" fill="#000000" transform="translate(0,0)"/>
<path d="" fill="#000000" transform="translate(0,0)"/>
<path d="" fill="#000000" transform="translate(0,0)"/>
<path d="" fill="#000000" transform="translate(0,0)"/>
<path d="" fill="#000000" transform="translate(0,0)"/>
<path d="" fill="#000000" transform="translate(0,0)"/>
<path d="" fill="#000000" transform="translate(0,0)"/>
<path d="" fill="#000000" transform="translate(0,0)"/>
<path d="" fill="#000000" transform="translate(0,0)"/>
<path d="" fill="#000000" transform="translate(0,0)"/>
<path d="" fill="#000000" transform="translate(0,0)"/>
<path d="" fill="#000000" transform="translate(0,0)"/>
<path d="" fill="#000000" transform="translate(0,0)"/>
<path d="" fill="#000000" transform="translate(0,0)"/>
<path d="" fill="#000000" transform="translate(0,0)"/>
<path d="" fill="#000000" transform="translate(0,0)"/>
<path d="" fill="#000000" transform="translate(0,0)"/>
<path d="" fill="#000000" transform="translate(0,0)"/>
<path d="" fill="#000000" transform="translate(0,0)"/>
<path d="" fill="#000000" transform="translate(0,0)"/>
<path d="" fill="#000000" transform="translate(0,0)"/>
<path d="" fill="#000000" transform="translate(0,0)"/>
<path d="" fill="#000000" transform="translate(0,0)"/>
<path d="" fill="#000000" transform="translate(0,0)"/>
<path d="" fill="#000000" transform="translate(0,0)"/>
<path d="" fill="#000000" transform="translate(0,0)"/>
<path d="" fill="#000000" transform="translate(0,0)"/>
<path d="" fill="#000000" transform="translate(0,0)"/>
<path d="" fill="#000000" transform="translate(0,0)"/>
<path d="" fill="#000000" transform="translate(0,0)"/>
<path d="" fill="#000000" transform="translate(0,0)"/>
<path d="" fill="#000000" transform="translate(0,0)"/>
<path d="" fill="#000000" transform="translate(0,0)"/>
<path d="" fill="#000000" transform="translate(0,0)"/>
<path d="" fill="#000000" transform="translate(0,0)"/>
<path d="" fill="#000000" transform="translate(0,0)"/>
<path d="" fill="#000000" transform="translate(0,0)"/>
<path d="" fill="#000000" transform="translate(0,0)"/>
<path d="" fill="#000000" transform="translate(0,0)"/>
<path d="" fill="#000000" transform="translate(0,0)"/>
<path d="" fill="#000000" transform="translate(0,0)"/>
<path d="" fill="#000000" transform="translate(0,0)"/>
<path d="" fill="#000000" transform="translate(0,0)"/>
<path d="" fill="#000000" transform="translate(0,0)"/>
<path d="" fill="#000000" transform="translate(0,0)"/>
<path d="" fill="#000000" transform="translate(0,0)"/>
<path d="" fill="#000000" transform="translate(0,0)"/>
<path d="" fill="#000000" transform="translate(0,0)"/>
<path d="" fill="#000000" transform="translate(0,0)"/>
<path d="" fill="#000000" transform="translate(0,0)"/>
<path d="" fill="#000000" transform="translate(0,0)"/>
<path d="" fill="#000000" transform="translate(0,0)"/>
<path d="" fill="#000000" transform="translate(0,0)"/>
<path d="" fill="#000000" transform="translate(0,0)"/>
<path d="" fill="#000000" transform="translate(0,0)"/>
<path d="" fill="#000000" transform="translate(0,0)"/>
<path d="" fill="#000000" transform="translate(0,0)"/>
<path d="" fill="#000000" transform="translate(0,0)"/>
<path d="" fill="#000000" transform="translate(0,0)"/>
<path d="" fill="#000000" transform="translate(0,0)"/>
<path d="" fill="#000000" transform="translate(0,0)"/>
<path d="" fill="#000000" transform="translate(0,0)"/>
<path d="" fill="#000000" transform="translate(0,0)"/>
<path d="" fill="#000000" transform="translate(0,0)"/>
<path d="" fill="#000000" transform="translate(0,0)"/>
<path d="" fill="#000000" transform="translate(0,0)"/>
<path d="" fill="#000000" transform="translate(0,0)"/>
<path d="" fill="#000000" transform="translate(0,0)"/>
<path d="" fill="#000000" transform="translate(0,0)"/>
<path d="" fill="#000000" transform="translate(0,0)"/>
<path d="" fill="#000000" transform="translate(0,0)"/>
<path d="" fill="#000000" transform="translate(0,0)"/>
<path d="" fill="#000000" transform="translate(0,0)"/>
<path d="" fill="#000000" transform="translate(0,0)"/>
<path d="" fill="#000000" transform="translate(0,0)"/>
<path d="" fill="#000000" transform="translate(0,0)"/>
<path d="" fill="#000000" transform="translate(0,0)"/>
<path d="" fill="#000000" transform="translate(0,0)"/>
<path d="" fill="#000000" transform="translate(0,0)"/>
<path d="" fill="#000000" transform="translate(0,0)"/>
<path d="" fill="#000000" transform="translate(0,0)"/>
<path d="" fill="#000000" transform="translate(0,0)"/>
<path d="" fill="#000000" transform="translate(0,0)"/>
<path d="" fill="#000000" transform="translate(0,0)"/>
<path d="" fill="#000000" transform="translate(0,0)"/>
<path d="" fill="#000000" transform="translate(0,0)"/>
<path d="" fill="#000000" transform="translate(0,0)"/>
<path d="" fill="#000000" transform="translate(0,0)"/>
<path d="" fill="#000000" transform="translate(0,0)"/>
<path d="" fill="#000000" transform="translate(0,0)"/>
<path d="" fill="#000000" transform="translate(0,0)"/>
<path d="" fill="#000000" transform="translate(0,0)"/>
<path d="" fill="#000000" transform="translate(0,0)"/>
<path d="" fill="#000000" transform="translate(0,0)"/>
<path d="" fill="#000000" transform="translate(0,0)"/>
<path d="" fill="#000000" transform="translate(0,0)"/>
<path d="" fill="#000000" transform="translate(0,0)"/>
<path d="" fill="#000000" transform="translate(0,0)"/>
<path d="" fill="#000000" transform="translate(0,0)"/>
<path d="" fill="#000000" transform="translate(0,0)"/>
<path d="" fill="#000000" transform="translate(0,0)"/>
<path d="" fill="#000000" transform="translate(0,0)"/>
<path d="" fill="#000000" transform="translate(0,0)"/>
<path d="" fill="#000000" transform="translate(0,0)"/>
<path d="" fill="#000000" transform="translate(0,0)"/>
<path d="" fill="#000000" transform="translate(0,0)"/>
<path d="" fill="#000000" transform="translate(0,0)"/>
<path d="" fill="#000000" transform="translate(0,0)"/>
<path d="" fill="#000000" transform="translate(0,0)"/>
<path d="" fill="#000000" transform="translate(0,0)"/>
<path d="" fill="#000000" transform="translate(0,0)"/>
<path d="" fill="#000000" transform="translate(0,0)"/>
<path d="" fill="#000000" transform="translate(0,0)"/>
<path d="" fill="#000000" transform="translate(0,0)"/>
<path d="" fill="#000000" transform="translate(0,0)"/>
<path d="" fill="#000000" transform="translate(0,0)"/>
<path d="" fill="#000000" transform="translate(0,0)"/>
<path d="" fill="#000000" transform="translate(0,0)"/>
<path d="" fill="#000000" transform="translate(0,0)"/>
<path d="" fill="#000000" transform="translate(0,0)"/>
<path d="" fill="#000000" transform="translate(0,0)"/>
<path d="" fill="#000000" transform="translate(0,0)"/>
<path d="" fill="#000000" transform="translate(0,0)"/>
<path d="" fill="#000000" transform="translate(0,0)"/>
<path d="" fill="#000000" transform="translate(0,0)"/>
<path d="" fill="#000000" transform="translate(0,0)"/>
<path d="" fill="#000000" transform="translate(0,0)"/>
<path d="" fill="#000000" transform="translate(0,0)"/>
<path d="" fill="#000000" transform="translate(0,0)"/>
<path d="" fill="#000000" transform="translate(0,0)"/>
<path d="" fill="#000000" transform="translate(0,0)"/>
<path d="" fill="#000000" transform="translate(0,0)"/>
<path d="" fill="#000000" transform="translate(0,0)"/>
<path d="" fill="#000000" transform="translate(0,0)"/>
<path d="" fill="#000000" transform="translate(0,0)"/>
<path d="" fill="#000000" transform="translate(0,0)"/>
<path d="" fill="#000000" transform="translate(0,0)"/>
<path d="" fill="#000000" transform="translate(0,0)"/>
<path d="" fill="#000000" transform="translate(0,0)"/>
<path d="" fill="#000000" transform="translate(0,0)"/>
<path d="" fill="#000000" transform="translate(0,0)"/>
<path d="" fill="#000000" transform="translate(0,0)"/>
<path d="" fill="#000000" transform="translate(0,0)"/>
<path d="" fill="#000000" transform="translate(0,0)"/>
<path d="" fill="#000000" transform="translate(0,0)"/>
<path d="" fill="#000000" transform="translate(0,0)"/>
<path d="" fill="#000000" transform="translate(0,0)"/>
<path d="" fill="#000000" transform="translate(0,0)"/>
<path d="" fill="#000000" transform="translate(0,0)"/>
<path d="" fill="#000000" transform="translate(0,0)"/>
<path d="" fill="#000000" transform="translate(0,0)"/>
<path d="" fill="#000000" transform="translate(0,0)"/>
<path d="" fill="#000000" transform="translate(0,0)"/>
<path d="" fill="#000000" transform="translate(0,0)"/>
<path d="" fill="#000000" transform="translate(0,0)"/>
<path d="" fill="#000000" transform="translate(0,0)"/>
<path d="" fill="#000000" transform="translate(0,0)"/>
<path d="" fill="#000000" transform="translate(0,0)"/>
<path d="" fill="#000000" transform="translate(0,0)"/>
<path d="" fill="#000000" transform="translate(0,0)"/>
<path d="" fill="#000000" transform="translate(0,0)"/>
</svg>
